<?xml version="1.0" encoding="UTF-8"?>
<svg xmlns="http://www.w3.org/2000/svg" xmlns:xlink="http://www.w3.org/1999/xlink" viewBox="0 0 240 240" width="240px" height="240px">
<g id="surface54628988">
<path style=" stroke:none;fill-rule:nonzero;fill:rgb(59.607846%,59.607846%,59.607846%);fill-opacity:1;" d="M 38.363281 7.5 C 22.828125 7.5 10.238281 20.09375 10.238281 35.625 C 10.238281 51.15625 22.828125 63.75 38.363281 63.75 C 53.894531 63.75 66.488281 51.15625 66.488281 35.625 C 66.488281 20.09375 53.894531 7.5 38.363281 7.5 Z M 200.863281 7.5 C 185.328125 7.5 172.738281 20.09375 172.738281 35.625 C 172.738281 51.15625 185.328125 63.75 200.863281 63.75 C 216.394531 63.75 228.988281 51.15625 228.988281 35.625 C 228.988281 20.09375 216.394531 7.5 200.863281 7.5 Z M 200.863281 7.5 "/>
<path style=" stroke:none;fill-rule:nonzero;fill:rgb(59.607846%,59.607846%,59.607846%);fill-opacity:1;" d="M 200.863281 7.5 C 185.328125 7.5 172.738281 20.09375 172.738281 35.625 C 172.738281 51.15625 185.328125 63.75 200.863281 63.75 C 216.394531 63.75 228.988281 51.15625 228.988281 35.625 C 228.988281 20.09375 216.394531 7.5 200.863281 7.5 Z M 119.613281 7.5 C 104.078125 7.5 91.488281 20.09375 91.488281 35.625 C 91.488281 51.15625 104.078125 63.75 119.613281 63.75 C 135.144531 63.75 147.738281 51.15625 147.738281 35.625 C 147.738281 20.09375 135.144531 7.5 119.613281 7.5 Z M 200.863281 88.75 C 185.328125 88.75 172.738281 101.34375 172.738281 116.875 C 172.738281 132.40625 185.328125 145 200.863281 145 C 216.394531 145 228.988281 132.40625 228.988281 116.875 C 228.988281 101.34375 216.394531 88.75 200.863281 88.75 Z M 200.863281 88.75 "/>
<path style=" stroke:none;fill-rule:nonzero;fill:rgb(59.607846%,59.607846%,59.607846%);fill-opacity:1;" d="M 200.863281 88.75 C 185.328125 88.75 172.738281 101.34375 172.738281 116.875 C 172.738281 132.40625 185.328125 145 200.863281 145 C 216.394531 145 228.988281 132.40625 228.988281 116.875 C 228.988281 101.34375 216.394531 88.75 200.863281 88.75 Z M 200.863281 170 C 185.328125 170 172.738281 182.59375 172.738281 198.125 C 172.738281 213.65625 185.328125 226.25 200.863281 226.25 C 216.394531 226.25 228.988281 213.65625 228.988281 198.125 C 228.988281 182.59375 216.394531 170 200.863281 170 Z M 119.613281 88.75 C 104.078125 88.75 91.488281 101.34375 91.488281 116.875 C 91.488281 132.40625 104.078125 145 119.613281 145 C 135.144531 145 147.738281 132.40625 147.738281 116.875 C 147.738281 101.34375 135.144531 88.75 119.613281 88.75 Z M 119.613281 88.75 "/>
</g>
</svg>
