<?xml version="1.0" encoding="utf-8"?>
<!-- Generator: Adobe Illustrator 24.3.0, SVG Export Plug-In . SVG Version: 6.00 Build 0)  -->
<svg version="1.1" id="Layer_1" xmlns="http://www.w3.org/2000/svg" xmlns:xlink="http://www.w3.org/1999/xlink" x="0px" y="0px"
	 viewBox="0 0 100 100" style="enable-background:new 0 0 100 100;" xml:space="preserve">
<path d="M76.59,99.33c0-1.76,0-3.51,0-5.12c-2.37-0.54-4.73-0.87-6.95-1.63C63.08,90.32,58.73,85.93,57.24,79
	c-0.95-4.4,0.14-8.42,2.15-12.32c2.45-4.73,5.62-8.96,9.1-12.95c2.84-3.26,5.91-6.32,8.89-9.47c0.21-0.23,0.46-0.43,0.68-0.63
	c2.65,2.02,11.67,12,13.39,14.83c-0.73,0.55-1.46,1.1-2.09,1.57c-3.72-4.21-7.38-8.36-11.15-12.63c-1.77,1.87-3.4,3.53-4.96,5.26
	c-4.23,4.71-8.25,9.58-11.23,15.2c-1.31,2.48-2.35,5.05-2.22,7.95c0.29,6.14,3.33,10.49,8.75,13.24c2.49,1.26,5.17,1.83,8.08,2.01
	c0-2.19,0.02-4.32-0.03-6.46c-0.01-0.28-0.35-0.59-0.59-0.83c-3.01-3.02-6.03-6.04-9.05-9.05c-0.25-0.25-0.48-0.5-0.72-0.75
	c0.68-0.69,1.33-1.33,2.02-2.03c2.72,2.72,5.44,5.44,8.38,8.37c0-0.63,0-0.99,0-1.35c-0.01-1.99-0.03-3.97-0.04-5.96
	c-1.39-1.42-2.77-2.84-4.17-4.25c-1.08-1.09-2.19-2.16-3.25-3.21c0.72-0.7,1.37-1.34,2.13-2.08c1.65,1.69,3.38,3.46,5.32,5.45
	c0-2.9,0-5.5,0-8.16c0.99,0,1.88,0,2.86,0c0,2.62,0,5.23,0,7.79c1.77-1.77,3.51-3.52,5.26-5.27c0.86,0.93,1.48,1.6,2.22,2.4
	c-0.57,0.54-1.31,1.23-2.04,1.95c-1.64,1.63-3.28,3.25-4.89,4.91c-0.24,0.25-0.47,0.64-0.48,0.97c-0.04,2.17-0.02,4.35-0.02,6.64
	c2.81-2.83,5.53-5.59,8.28-8.35c0.83,0.85,1.46,1.48,2.15,2.18c-0.22,0.23-0.45,0.48-0.69,0.72c-3.02,3.02-6.03,6.04-9.07,9.03
	c-0.5,0.49-0.7,0.99-0.68,1.68c0.04,1.85,0.01,3.71,0.01,5.64c2.32-0.09,4.46-0.56,6.55-1.31c6.27-2.27,10.23-7.69,10.36-14.22
	c0.05-2.68-0.92-5.09-2.13-7.4c-0.86-1.64-1.85-3.22-2.85-4.92c0.73-0.49,1.49-1.01,2.45-1.65c1.18,2.14,2.47,4.17,3.44,6.33
	c0.84,1.88,1.34,3.91,1.98,5.88c0,1.15,0,2.31,0,3.46c-0.07,0.24-0.13,0.48-0.2,0.72c-0.55,1.83-0.88,3.76-1.7,5.46
	c-2.59,5.34-7.12,8.32-12.75,9.77c-1.66,0.43-3.38,0.62-5.2,0.95c0,1.72,0,3.47,0,5.23C78.52,99.33,77.56,99.33,76.59,99.33z"/>
<path d="M0.67,73.94c0.48-2.04,0.74-4.18,1.49-6.12C5.51,59.18,11.85,54,21.02,52.64c12.21-1.81,23.83,6.47,26.21,18.57
	c1.43,7.28-0.33,13.83-5.01,19.74c-0.41-0.34-0.77-0.64-1.12-0.94c-0.34-0.29-0.68-0.57-1.08-0.91c4.12-5.24,5.69-11.09,4.31-17.59
	c-1.12-5.3-4.03-9.5-8.47-12.62c-8.56-6.01-20.25-4.44-27.4,3.67c-6.53,7.41-6.39,19.37,0.12,26.75c7.15,8.1,19.65,9.77,28.88,2.34
	c0.59,0.69,1.18,1.38,1.83,2.15c-1.64,1.47-3.47,2.56-5.43,3.44c-0.96,0.43-1.94,0.8-2.94,1.1c-1.33,0.4-2.69,0.67-4.08,0.82
	c-0.18,0.02-0.36,0.11-0.53,0.17c-1.35,0-2.7,0-4.05,0c-0.28-0.06-0.56-0.14-0.84-0.18c-0.15-0.02-0.29-0.05-0.44-0.07
	c-9.09-1.5-15.42-6.54-18.8-15.17c-0.76-1.94-1.02-4.07-1.51-6.12C0.67,76.51,0.67,75.22,0.67,73.94z"/>
<path d="M49.92,5.66c-3.46,5.43-6.8,10.66-10.19,15.98c-1.71-1.79-3.47-3.62-5.22-5.45c-0.11,0.07-0.22,0.13-0.33,0.2
	c0,2.92,0,5.84,0,8.82c-1.03,0-1.93,0-2.89,0c0-5.28,0-10.52,0-15.74c2.55,2.56,5.09,5.11,7.67,7.7c3.71-5.57,7.27-10.9,11-16.5
	c2.52,3.69,4.94,7.1,7.2,10.61c2.27,3.52,4.37,7.15,6.61,10.83c1.56-1.6,3.12-3.21,4.87-5c0.07,0.47,0.12,0.62,0.12,0.76
	c-0.01,6.54,0.08,13.08-0.07,19.62c-0.17,7.78-5.84,14.89-13.34,17.01c-10.69,3.03-21.43-3.36-23.68-14.21
	c-0.42-2.01-0.33-4.14-0.41-6.21c-0.06-1.6-0.01-3.2-0.01-4.87c0.96,0,1.87,0,2.89,0c0,2.23-0.08,4.44,0.03,6.64
	c0.08,1.68,0.2,3.41,0.62,5.03c1.76,6.72,8.15,11.51,15.2,11.52c7.03,0.02,13.44-4.78,15.24-11.48c0.33-1.23,0.56-2.52,0.58-3.78
	c0.07-4.23,0.03-8.46,0.03-12.82c-0.91,1.02-1.74,1.96-2.57,2.9C59.23,19.6,54.79,12.68,49.92,5.66z"/>
<path d="M20.49,79.94c0,0.93,0,1.84,0,2.76c-5.02-0.06-8.07-5.3-5.82-9.83c2.62-5.27,9.43-5.61,13.19-1.49
	c4.08,4.48,2.43,11.31-2.48,14.24c-3.94,2.35-7.92,1.95-11.6-0.55c-3.77-2.55-5.4-6.28-4.89-10.8c1.04-9.38,11.26-15.06,20.67-9.72
	C37,68.8,39.41,77.97,35.3,85.83c-2.12,4.06-5.33,6.9-9.72,8.57c-0.33-0.91-0.65-1.77-0.87-2.39c1.81-1.28,3.7-2.31,5.2-3.74
	c5.09-4.86,6.35-13.45,1.05-19.02c-3.58-3.76-9.33-4.91-13.68-2.69c-4.47,2.29-6.62,7.45-5.03,12.12c1.79,5.28,8.71,7.27,12.75,3.67
	c3.45-3.06,2.9-8.44-1.05-10.35c-3.3-1.6-7.01,0.47-7.1,3.97c-0.05,1.86,1.07,3.33,2.89,3.8C19.97,79.83,20.22,79.88,20.49,79.94z"
	/>
<path d="M50.1,22.32c3.22,4.52,6.43,8.97,8.53,14.14c1.77,4.37-0.57,9.55-5,11.47c-6.07,2.63-13.11-2.05-12.84-8.61
	c0.06-1.42,0.57-2.9,1.16-4.22c2.03-4.56,4.88-8.63,7.86-12.61C49.85,22.44,49.92,22.43,50.1,22.32z M50.01,27.09
	c-0.75,1.12-1.46,2.03-2.01,3.04c-1.38,2.52-2.84,5.01-3.97,7.64c-1.05,2.45,0.04,5.19,2.3,6.83c2.1,1.52,5.19,1.53,7.31,0.03
	c2.27-1.61,3.25-4.33,2.39-6.83C54.69,33.92,52.31,30.62,50.01,27.09z"/>
<path d="M42.43,75.83c-0.93,0-1.79,0-2.75,0c-0.2-5.48-2.53-9.82-7.14-12.98c0.51-0.81,1-1.58,1.49-2.35
	C38.88,63,42.95,70.41,42.43,75.83z"/>
<path d="M57.77,27.42c-1.29-2.31-2.52-4.53-3.8-6.83c0.81-0.49,1.59-0.96,2.47-1.49c1.32,2.37,2.6,4.67,3.9,7.02
	C59.42,26.58,58.63,26.98,57.77,27.42z"/>
<path d="M83.6,87.84c-0.26-0.96-0.48-1.81-0.69-2.57c1.68-0.84,3.27-1.64,5-2.5c0.48,0.56,1.08,1.25,1.73,2
	C87.87,86.29,85.89,87.23,83.6,87.84z"/>
<path d="M90.78,77.72c0.1-0.88,0.18-1.67,0.27-2.51c0.92,0,1.81,0,2.86,0c-0.11,1.03-0.21,2.02-0.32,3.13
	C92.62,78.13,91.76,77.94,90.78,77.72z"/>
<path d="M90.27,79.32c0.85,0.36,1.69,0.71,2.66,1.12c-0.59,0.97-1.12,1.86-1.7,2.82c-0.81-0.66-1.51-1.23-2.24-1.82
	C89.43,80.72,89.83,80.05,90.27,79.32z"/>
<path d="M26.81,60.59c-0.89-0.07-1.71-0.14-2.57-0.21c0-0.93,0-1.81,0-2.85c1,0.07,1.99,0.14,3.07,0.22
	C27.13,58.78,26.97,59.67,26.81,60.59z"/>
<path d="M50.39,14.93c-0.55-0.83-1.04-1.57-1.58-2.38c0.79-0.53,1.54-1.04,2.38-1.6c0.54,0.8,1.05,1.55,1.61,2.39
	C52,13.87,51.24,14.37,50.39,14.93z"/>
<path d="M53.85,14.99c0.53,0.85,1.01,1.61,1.54,2.45c-0.82,0.51-1.6,0.99-2.45,1.52c-0.51-0.81-1-1.59-1.52-2.42
	C52.25,16.01,53,15.53,53.85,14.99z"/>
<path d="M28.54,61c0.28-0.93,0.53-1.78,0.82-2.75c0.99,0.38,1.9,0.73,2.91,1.12c-0.43,0.89-0.83,1.7-1.26,2.58
	C30.19,61.62,29.42,61.33,28.54,61z"/>
</svg>
