<?xml version="1.0" encoding="utf-8"?>
<!-- Generator: Adobe Illustrator 24.3.0, SVG Export Plug-In . SVG Version: 6.00 Build 0)  -->
<svg version="1.1" id="Layer_1" xmlns="http://www.w3.org/2000/svg" xmlns:xlink="http://www.w3.org/1999/xlink" x="0px" y="0px"
	 viewBox="0 0 100 100" style="enable-background:new 0 0 100 100;" xml:space="preserve">
<style type="text/css">
	.st0{fill:#FFFFFF;}
</style>
<path d="M16.21,53.71c-0.08,10.53-0.06,21.25-0.04,31.61l0.01,7.5c0,2.83,2.01,4.81,4.88,4.81l8.04,0
	c17.43,0.01,34.86,0.01,52.29-0.01c6.88-0.01,13.1-5.23,14.16-11.88c0.38-2.36,0.36-4.84,0.35-7.25c0-0.81-0.01-1.62,0-2.43
	c0-0.32-0.09-0.58-0.28-0.77c-0.24-0.24-0.63-0.38-1.12-0.38c-1.99-0.02-3.98-0.01-5.97,0l-0.91,0c-3.31,0.01-6.21,1.05-8.64,3.08
	c-1.06,0.89-2.03,1.96-2.96,2.99c-0.43,0.48-0.87,0.96-1.31,1.42l-0.52,0.54l-0.44-0.61c-0.12-0.16-0.24-0.34-0.38-0.54
	c-0.33-0.47-0.69-1.01-1.12-1.48c-0.55-0.62-0.79-1.29-0.79-2.19c0-2.13,0.01-4.27,0.02-6.4c0.03-6.12,0.05-12.44-0.07-18.66
	c-0.11-5.2-2.45-9.3-6.97-12.19c-0.71-0.45-1.42-0.88-2.14-1.32l-0.9-0.55c-1.07-0.65-1.69-1.6-1.8-2.75
	c-0.15-1.58-0.26-3.16-0.38-4.73l-0.18-2.35l0.44-0.16c2.39-0.87,2.72-1.33,2.72-3.71c0-0.68-0.01-1.36-0.02-2.04
	c-0.02-1.54-0.04-3.12,0.04-4.69c0.06-1.09-0.22-1.97-0.82-2.56c-0.57-0.56-1.42-0.83-2.46-0.75c-0.71,0.05-1.42,0.04-2.16,0.02
	c-0.34-0.01-0.69-0.01-1.04-0.01h-0.75l0.39-2.05c0.18-0.94,0.36-1.83,0.49-2.72c0.04-0.27,0.09-0.54,0.13-0.81
	c0.17-0.97,0.32-1.89,0.25-2.77c-0.18-2.34-1.49-3.89-3.91-4.59H35.42c-1.16,0.37-2.25,0.8-2.98,1.8c-1,1.37-1.3,2.92-0.93,4.9
	c0.23,1.26,0.47,2.53,0.71,3.82l0.46,2.43l-1.92,0c-0.36,0-0.72,0-1.07,0c-0.43,0-0.85,0-1.27,0.01c-2,0.02-2.97,1.01-2.98,3.01
	c-0.01,1.67-0.01,3.33,0,5l0,1.98c0,2.33,0.38,2.88,2.54,3.68l0.41,0.15l0,1.75c0,0.97-0.01,1.94,0.01,2.9
	c0.06,3.18-1.3,5.35-4.04,6.45c-0.07,0.03-0.14,0.08-0.2,0.12c-0.07,0.04-0.14,0.09-0.21,0.13C18.86,43.37,16.26,47.83,16.21,53.71z
	 M82.28,78.82c1.81-0.95,3.59-1.39,5.44-1.39c1.13,0.01,2.27,0.01,3.42,0l2.22,0l0.04,1.53c0.11,3.88,0.22,7.88-2.55,11.34
	c-2.53,3.15-6.01,4.83-9.95,4.83c-0.63,0-1.27-0.04-1.92-0.13l-1.26-0.17l2.45-2.44c1.16-1.16,2.29-2.28,3.42-3.4
	c0.61-0.6,0.57-1.08,0.47-1.42c-0.12-0.42-0.43-0.73-0.83-0.84c-0.44-0.12-0.94,0.03-1.31,0.39c-1,0.95-1.97,1.93-2.94,2.91
	c-0.46,0.47-0.93,0.93-1.4,1.4c-0.15,0.15-0.31,0.3-0.48,0.45l-1.04,0.96l-0.23-1.08C74.79,86.85,77.57,81.29,82.28,78.82z
	 M71.99,84.46c1.24,2.47,1.25,5.01,1.08,7.39l-0.1,1.38l-2.52-2.55c-1.22-1.24-2.37-2.41-3.53-3.56c-0.49-0.49-1.02-0.57-1.57-0.25
	c-0.51,0.29-0.74,0.85-0.57,1.36c0.09,0.27,0.31,0.58,0.63,0.91c1.14,1.17,2.29,2.32,3.48,3.5l2.24,2.24l-1.29,0.14
	c-0.64,0.07-1.26,0.11-1.86,0.11c-3.06,0-5.69-0.92-8-2.79c-4.86-3.93-4.84-9.46-4.44-14.33l0.05-0.6l0.6,0.02
	c0.81,0.03,1.64,0.01,2.45,0c2.39-0.05,4.85-0.11,7.25,1.04C68.6,79.77,70.65,81.78,71.99,84.46z M34.4,5.72
	c0.66-0.77,1.81-0.86,2.61-0.86c4.65,0,9.3,0,13.95,0c1.07,0,1.86,0.3,2.36,0.9c0.5,0.59,0.66,1.43,0.47,2.48
	c-0.2,1.12-0.41,2.23-0.62,3.34c-0.16,0.83-0.32,1.66-0.47,2.49c-0.06,0.3-0.23,1.23-1.38,1.23c0,0-0.01,0-0.01,0
	c-3.58-0.02-7.17-0.02-10.75-0.02l-4.42,0c-0.14,0-0.25-0.03-0.36-0.06l-0.56-0.13l-0.08-0.4c-0.12-0.64-0.25-1.28-0.37-1.92
	c-0.28-1.44-0.57-2.94-0.81-4.41C33.76,7.13,33.9,6.3,34.4,5.72z M28.04,26.27v-8.41h31.63v8.41H28.04z M25.33,42.56
	c0.29-0.16,0.58-0.34,0.87-0.52c0.3-0.19,0.6-0.37,0.91-0.54c2.28-1.27,3.46-3.24,3.63-6.03c0.08-1.37,0.15-2.74,0.23-4.13
	l0.13-2.44h25.53l0.09,2.02c0.05,1.16,0.1,2.31,0.17,3.45c0.04,0.73,0.14,1.47,0.23,2.1c0.28,2.07,1.27,3.6,3.01,4.68
	c0.44,0.27,0.88,0.54,1.32,0.8c0.61,0.37,1.22,0.73,1.82,1.12c3.6,2.31,5.55,5.65,5.64,9.65c0.13,5.47,0.11,11.03,0.09,16.41
	c-0.01,2.23-0.02,4.46-0.02,6.69c0,0.14-0.04,0.24-0.07,0.34l-0.29,0.97l-0.69-0.43c-3.06-1.89-6.35-1.86-9.84-1.82
	c-0.57,0.01-1.15,0.01-1.72,0.01l-0.46,0c-0.59,0-1.17-0.01-1.76,0.02c-0.59,0.03-1.18,0.38-1.17,0.99
	c0.01,0.74,0.01,1.48,0.01,2.22c0.01,2.53,0.02,5.15,0.31,7.67c0.34,2.87,1.87,5.54,4.69,8.15l1.05,0.97l-1.77,0.14
	c-0.23,0.02-0.42,0.04-0.61,0.04c-7.46,0-14.91,0-22.37,0c-4.29,0-8.59,0-12.88,0c-1.91,0-2.69-0.79-2.69-2.73l0-9.73
	c0-9.51-0.01-19.03,0.01-28.54C18.72,48.89,20.95,45,25.33,42.56z"/>
<path d="M27.5,52.27c-0.01,3.08-0.01,6.15,0,9.23c0,1.22,0.41,1.64,1.61,1.64c9.83,0,19.66,0,29.5,0c1.17,0,1.56-0.39,1.57-1.56
	c0.01-3.11,0.01-6.22,0-9.33c0-1.22-0.4-1.62-1.61-1.62c-1.95-0.01-3.89-0.01-5.84,0c-0.59,0-1.08,0.17-1.37,0.47
	c-0.21,0.21-0.31,0.49-0.3,0.82c0.03,1.1,1.17,1.23,1.66,1.23c0.98,0,1.96,0,2.96,0l1.93,0v7.42H30.07v-7.42l1.99,0
	c1.03,0,2.03,0,3.03,0c0.69-0.01,1.51-0.23,1.52-1.24c0-0.37-0.1-0.66-0.3-0.87c-0.26-0.27-0.7-0.41-1.26-0.41
	c-0.99-0.01-1.98-0.01-2.97-0.01c-0.99,0-1.98,0-2.97,0.01C27.93,50.63,27.5,51.06,27.5,52.27z"/>
<path d="M43.2,34.27C43.2,34.27,43.19,34.27,43.2,34.27c-1.48,0-2.87,0.58-3.92,1.63c-1.05,1.05-1.64,2.44-1.64,3.92
	c0,3.06,2.48,5.56,5.53,5.57c0,0,0.01,0,0.01,0c3.05,0,5.53-2.48,5.53-5.54c0-1.48-0.57-2.88-1.62-3.93
	C46.06,34.86,44.67,34.28,43.2,34.27z M43.21,42.86c-0.01,0-0.02,0-0.03,0c-0.79,0-1.53-0.31-2.11-0.87
	c-0.58-0.57-0.9-1.33-0.91-2.12c-0.02-1.67,1.32-3.04,2.99-3.05c0.01,0,0.02,0,0.03,0c0.79,0,1.53,0.3,2.1,0.86
	c0.58,0.57,0.9,1.33,0.9,2.14C46.21,41.47,44.87,42.84,43.21,42.86z"/>
<path d="M42.11,67.59c0,0-0.01,0-0.01,0c-1.47,0-2.86,0.59-3.92,1.64s-1.63,2.45-1.63,3.91c0,1.47,0.59,2.86,1.65,3.91
	c1.05,1.05,2.44,1.62,3.91,1.62c0.01,0,0.01,0,0.02,0c1.48,0,2.87-0.59,3.92-1.64c1.05-1.05,1.63-2.44,1.62-3.91
	C47.65,70.07,45.16,67.59,42.11,67.59z M44.28,75.22c-0.57,0.59-1.33,0.91-2.14,0.92c-0.01,0-0.03,0-0.04,0
	c-1.65,0-3-1.32-3.03-2.97c-0.01-0.79,0.29-1.54,0.86-2.12c0.56-0.58,1.34-0.92,2.13-0.94c1.63-0.01,3.04,1.34,3.07,2.98
	C45.15,73.88,44.85,74.64,44.28,75.22z"/>
<path d="M30.02,78.86C30.02,78.86,30.02,78.86,30.02,78.86c-1.48,0-2.88,0.58-3.93,1.62c-1.05,1.05-1.63,2.43-1.63,3.91
	c0,3.05,2.49,5.53,5.56,5.53c0,0,0,0,0,0c1.48,0,2.87-0.58,3.92-1.62c1.05-1.05,1.63-2.44,1.63-3.91c0-1.47-0.58-2.86-1.63-3.91
	C32.9,79.44,31.5,78.86,30.02,78.86z M32.17,86.51c-0.57,0.57-1.33,0.88-2.13,0.89c0,0-0.01,0-0.01,0c-1.66,0-3.02-1.34-3.03-2.99
	c-0.01-0.79,0.3-1.54,0.87-2.12c0.57-0.58,1.34-0.9,2.15-0.9c0,0,0.01,0,0.01,0c1.67,0,3.02,1.34,3.03,2.99
	C33.05,85.18,32.74,85.94,32.17,86.51z"/>
<path d="M43.83,53.13c0.34,0.01,0.66-0.12,0.89-0.34c0.24-0.23,0.37-0.56,0.36-0.91c0-0.69-0.54-1.24-1.21-1.25
	c-0.01,0-0.02,0-0.02,0c-0.31,0-0.63,0.14-0.87,0.38c-0.25,0.25-0.39,0.57-0.39,0.89C42.6,52.55,43.17,53.12,43.83,53.13z"/>
</svg>
