<?xml version="1.0" encoding="utf-8"?>
<!-- Generator: Adobe Illustrator 24.3.0, SVG Export Plug-In . SVG Version: 6.00 Build 0)  -->
<svg version="1.1" id="Layer_1" xmlns="http://www.w3.org/2000/svg" xmlns:xlink="http://www.w3.org/1999/xlink" x="0px" y="0px"
	 viewBox="0 0 100 100" style="enable-background:new 0 0 100 100;" xml:space="preserve">
<g>
	<path d="M98.31,66.41c-0.31,1.66-0.52,3.35-0.93,4.99c-3.59,14.48-16.76,24.19-31.65,23.35c-1.13-0.06-2.24-0.28-3.37-0.36
		c-0.58-0.04-1.18,0.02-1.74,0.14c-2.88,0.64-5.74,1.35-8.62,1.97c-1.17,0.25-2.11-0.48-2.27-1.57c-0.15-1.06,0.5-1.89,1.66-2.13
		c2.09-0.43,4.18-0.86,6.27-1.31c0.33-0.07,0.65-0.2,0.95-0.3c-0.51-1.89-1.09-3.71-1.48-5.57C54.05,71,62.49,55.81,76.55,50.75
		c4.19-1.51,7.77-3.77,10.59-7.24c1.06-1.31,2.21-1.29,3.33-0.03c4.41,4.97,6.98,10.76,7.66,17.38c0.03,0.28,0.11,0.55,0.17,0.82
		C98.31,63.26,98.31,64.83,98.31,66.41z M88.79,47.41c-0.17,0.16-0.32,0.28-0.45,0.41c-2.73,2.79-5.94,4.81-9.61,6.14
		c-1.27,0.46-2.53,0.96-3.72,1.58c-10.43,5.38-16.15,16.53-14.4,28.2c0.31,2.06,0.98,4.06,1.51,6.15c3.18-1.37,5.89-3,8.39-4.98
		c0.19-0.15,0.32-0.53,0.29-0.77c-0.14-1.12-0.35-2.23-0.53-3.35c-0.24-1.49-0.51-2.97-0.69-4.47c-0.12-1.07,0.57-1.88,1.55-2.01
		c1.03-0.14,1.82,0.4,2.1,1.45c0.07,0.27,0.11,0.55,0.16,0.83c0.27,1.62,0.55,3.23,0.87,5.16c0.39-0.49,0.6-0.77,0.83-1.02
		c4.47-4.9,7.52-10.56,9.11-17.01c0.35-1.42,1.26-2.08,2.4-1.8c1.12,0.27,1.66,1.34,1.26,2.72c-0.48,1.69-1.03,3.36-1.58,5.03
		c-0.28,0.84-0.65,1.65-1.02,2.6c0.51-0.16,0.86-0.28,1.22-0.39c1.3-0.41,2.33,0.02,2.68,1.13c0.33,1.04-0.24,2.01-1.48,2.44
		c-1.45,0.51-2.93,0.95-4.36,1.49c-0.46,0.17-0.93,0.52-1.2,0.93c-3.41,5.13-7.7,9.35-12.94,12.59c-0.19,0.12-0.36,0.28-0.54,0.42
		c10.49-0.66,18.27-5.56,23.05-14.88C96.68,66.27,94.81,54.82,88.79,47.41z"/>
	<path d="M13.2,43.82c5.46,0.83,10.22,2.66,14.32,5.9c9.92,7.82,13.82,18.06,11.81,30.51c-0.64,3.98-0.43,7.82,0.95,11.6
		c0.06,0.18,0.13,0.35,0.19,0.53c0.49,1.47-0.06,2.49-1.59,2.78c-11.14,2.14-20.78-0.82-28.66-8.91C4.19,80.03,1.41,72.4,1.71,63.75
		c0.24-6.84,2.66-12.92,6.93-18.28c0.44-0.56,0.71-1.29,0.93-1.98c0.85-2.66,1.6-5.34,2.49-7.99c0.43-1.3,1.51-1.78,2.58-1.34
		c1.05,0.43,1.35,1.47,0.89,2.79C14.74,39.19,14,41.45,13.2,43.82z M13.92,62.06c0.07,0.3,0.11,0.45,0.15,0.59
		c1.96,6.63,5.47,12.31,10.45,17.1c0.94,0.9,1.03,2.04,0.28,2.84c-0.8,0.85-1.97,0.85-2.9-0.15c-1.6-1.72-3.14-3.51-4.7-5.28
		c-0.22-0.24-0.41-0.51-0.71-0.88c-0.13,0.58-0.21,0.98-0.3,1.37c-0.28,1.24-1.2,1.88-2.33,1.62c-1.05-0.24-1.61-1.2-1.37-2.42
		c0.3-1.51,0.65-3.01,0.88-4.53c0.08-0.51,0.02-1.13-0.2-1.59C10.96,66.21,9.5,61.46,9,56.44c-0.13-1.28-0.21-2.58-0.32-4.02
		C3.95,60.8,4.11,72.65,11.32,81.8c7.16,9.1,18.37,11.3,24.91,9.86c-0.93-3.13-1.29-6.33-0.95-9.59c0.17-1.62,0.53-3.23,0.7-4.85
		c1.23-12-5.5-23.26-16.63-27.86c-2.09-0.86-4.24-1.49-6.49-1.74c-0.07,0.16-0.12,0.24-0.13,0.33c-0.35,3.08-0.28,6.15,0.17,9.21
		c0.04,0.27,0.42,0.6,0.71,0.72c2.22,0.87,4.46,1.68,6.69,2.53c1.35,0.51,1.9,1.51,1.47,2.61c-0.41,1.06-1.46,1.42-2.77,0.93
		C17.36,63.36,15.72,62.74,13.92,62.06z"/>
	<path d="M74.07,25.81c-2.65-1.98-5.44-3.53-8.44-4.69c-0.24-0.09-0.7,0.13-0.95,0.33c-1.91,1.53-3.8,3.1-5.7,4.65
		c-0.7,0.57-1.48,0.69-2.27,0.22c-0.72-0.43-1.06-1.13-0.84-1.93c0.13-0.48,0.47-0.96,0.85-1.29c1.34-1.17,2.74-2.28,4.35-3.61
		c-1.72-0.31-3.17-0.64-4.65-0.83c-5.4-0.72-10.72-0.31-15.96,1.22c-1.3,0.38-2.2,0.02-2.63-0.97c-0.46-1.08,0.07-2.25,1.33-2.55
		c2.35-0.56,4.72-1.01,7.09-1.49c0.3-0.06,0.61-0.09,1.14-0.16c-0.47-0.43-0.8-0.72-1.12-1.03c-0.82-0.8-0.91-1.92-0.23-2.7
		c0.7-0.8,1.8-0.89,2.69-0.13c1.27,1.07,2.5,2.21,3.77,3.28c0.29,0.24,0.7,0.46,1.07,0.48c6.35,0.33,12.31,2.02,17.89,5.06
		c0.1,0.05,0.22,0.08,0.49,0.17c-0.21-0.37-0.31-0.61-0.46-0.82c-5.95-8.35-14.07-12.31-24.29-11.7c-2.41,0.14-4.8,0.88-7.17,1.45
		c-1.61,0.39-2.88-0.46-2.71-1.96c0.09-0.81,0.58-1.3,1.32-1.56c4.64-1.66,9.42-2.29,14.29-1.58c12.31,1.81,20.67,8.63,25.23,20.18
		c0.14,0.36,0.45,0.66,0.72,0.95c2.05,2.21,4.13,4.39,6.16,6.61c0.61,0.67,0.65,1.5,0.16,2.27c-0.45,0.71-1.18,1.04-1.96,0.77
		c-0.52-0.18-1-0.62-1.39-1.04c-1.56-1.72-3.08-3.47-4.68-5.29c-0.31,0.33-0.5,0.52-0.67,0.72c-6.93,8.06-15.73,11.81-26.32,11.08
		c-6.34-0.43-12.07-2.74-16.94-6.85c-3.45-2.91-7.23-4.94-11.72-5.65c-1.64-0.26-2.18-1.29-1.66-2.89c0.97-2.95,2.34-5.69,4.14-8.21
		c0.8-1.13,1.88-1.39,2.83-0.7c0.9,0.64,0.98,1.72,0.29,2.85c-1.09,1.79-2.13,3.61-3.19,5.42c1.8,0.67,3.41,1.2,4.96,1.85
		c2.39,1.01,4.47,2.54,6.45,4.21C46.8,39.6,64.11,38,73.6,26.44C73.73,26.27,73.86,26.09,74.07,25.81z"/>
	<path d="M31.68,12.99c-1-0.02-1.85-0.86-1.86-1.86c-0.01-1.03,0.88-1.92,1.92-1.9c1.05,0.02,1.88,0.89,1.84,1.96
		C33.54,12.2,32.7,13,31.68,12.99z"/>
</g>
</svg>
