<?xml version="1.0" encoding="utf-8"?>
<!-- Generator: Adobe Illustrator 24.3.0, SVG Export Plug-In . SVG Version: 6.00 Build 0)  -->
<svg version="1.1" id="Layer_1" xmlns="http://www.w3.org/2000/svg" xmlns:xlink="http://www.w3.org/1999/xlink" x="0px" y="0px"
	 viewBox="0 0 100 100" style="enable-background:new 0 0 100 100;" xml:space="preserve">
<g>
	<path d="M81.72,90.97c-0.82,2.98-2.56,5.06-5.52,5.94c-0.77,0.23-1.61,0.35-2.42,0.35c-16.67,0.02-33.34,0.02-50,0.01
		c-4.68,0-8.06-3.41-8.09-8.08c-0.01-2.52,0-5.04,0-7.67c-1.9,0-3.73,0-5.55,0c-3.62,0-5.47-1.83-5.47-5.42
		c0-10.04,0.09-20.08-0.03-30.12c-0.08-6.71,4.77-10.85,10.13-11.55c0.26-0.03,0.52-0.08,0.78-0.12c1.28-0.18,1.71-0.66,1.73-1.93
		c0.01-0.39,0-0.77,0-1.27c-0.55,0-1.04,0.02-1.52,0c-0.99-0.05-1.61-0.62-1.62-1.61c-0.03-2.2-0.07-4.4,0.02-6.6
		c0.09-2.38,2.11-4.33,4.5-4.37c3.28-0.06,6.56-0.06,9.84,0c2.43,0.04,4.43,2.04,4.51,4.48c0.07,2.13,0.03,4.27,0.01,6.4
		c-0.01,1.1-0.62,1.67-1.73,1.7c-0.42,0.01-0.85,0-1.39,0c0,0.62-0.05,1.2,0.01,1.77c0.1,0.9,0.71,1.33,1.83,1.4
		c4.05,0.26,7.19,2.06,9.29,5.56c1.03,1.73,1.46,3.63,1.45,5.64c-0.01,5.32,0,10.63,0,15.95c0,0.36,0,0.71,0,1.12
		c1.06,0,2.06,0,3.15,0c0-0.61-0.01-1.2,0-1.78c0.12-4.19-0.02-8.42,0.41-12.58c1-9.69,4.86-18.23,11.08-25.71
		c0.29-0.35,0.55-0.77,0.91-1.03c2.18-1.57,1.87-3.81,1.69-6.11c-0.47,0-0.92,0.02-1.37,0c-1.06-0.04-1.68-0.61-1.69-1.64
		c-0.03-2.17-0.06-4.33,0.01-6.5c0.08-2.38,2.06-4.41,4.44-4.44c5.41-0.06,10.83-0.06,16.24,0c2.47,0.03,4.43,2.1,4.49,4.6
		c0.04,2,0.02,4,0.01,6.01c-0.01,1.42-0.55,1.96-1.96,1.98c-0.36,0-0.71,0-1.18,0c0,1.33-0.08,2.61,0.04,3.86
		c0.04,0.44,0.51,0.88,0.86,1.25c5.74,6.21,9.71,13.4,11.8,21.61c0.94,3.7,1.46,7.47,1.47,11.29c0.02,9.84,0.02,19.69,0,29.53
		c-0.01,4.67-3.42,8.05-8.09,8.08C83.76,90.98,82.74,90.97,81.72,90.97z M48.81,65.76c-8.23,0-16.47,0-24.7,0
		c-3.39,0-5.28,1.9-5.28,5.32c0,5.94,0,11.88,0,17.82c0,3.28,1.92,5.22,5.18,5.22c16.5,0,33,0,49.5,0c3.25,0,5.18-1.94,5.18-5.22
		c0-5.91,0-11.81,0-17.72c0-3.56-1.85-5.42-5.38-5.42C65.15,65.76,56.98,65.76,48.81,65.76z M48.8,62.54c13.67,0,27.27,0,40.91,0
		c0-3.05,0.02-6.04,0-9.02c-0.05-5.23-0.99-10.29-2.75-15.22c-0.25-0.7-0.59-0.92-1.33-0.92c-10.37,0.03-20.74,0.02-31.11,0.02
		c-2.77,0-2.71,0.02-3.6,2.67C48.45,47.38,48.68,54.92,48.8,62.54z M20.41,31.15c0,0.5,0,0.92,0,1.34
		c-0.02,2.75-1.74,4.63-4.46,4.95c-0.75,0.09-1.5,0.2-2.22,0.41c-4.17,1.17-6.67,5.07-5.77,9.02c0.34,0,0.7,0,1.06,0
		c7.31,0,14.63,0,21.94,0c1.54,0,2.06,0.53,2.06,2.07c0,4.2,0,8.4,0,12.6c0,0.35,0,0.69,0,1.04c2.16,0,4.18,0,6.3,0
		c0-0.4,0-0.75,0-1.1c0-5.18,0-10.37,0-15.55c0-5.05-3.02-8.23-8.07-8.51c-2.53-0.14-4.46-2.13-4.53-4.68c-0.01-0.51,0-1.03,0-1.59
		C24.59,31.15,22.57,31.15,20.41,31.15z M85.13,34.22c-0.03-0.16-0.03-0.23-0.05-0.29c-2.12-4.46-5-8.38-8.37-11.96
		c-0.19-0.2-0.57-0.32-0.86-0.32c-4.4-0.02-8.79-0.02-13.19,0.01c-0.34,0-0.79,0.19-0.99,0.44c-2.03,2.57-4.09,5.12-6,7.78
		c-0.95,1.31-1.62,2.81-2.47,4.34C63.96,34.22,74.51,34.22,85.13,34.22z M29.81,50.08c-7.37,0-14.66,0-21.96,0
		c0,6.29,0,12.52,0,18.79c2.69,0,5.33,0,7.95,0c1.48-4.42,4.04-6.25,8.67-6.25c1.76,0,3.53,0,5.34,0
		C29.81,58.4,29.81,54.27,29.81,50.08z M81.84,87.82c0.99,0,1.84,0,2.69,0c3.25-0.01,5.18-1.94,5.18-5.22c0-5.28,0-10.56,0-15.84
		c0-0.32-0.03-0.63-0.04-0.94c-3.14,0-6.2,0-9.29,0c1.46,2.96,1.46,2.96,1.46,6.35c0,4.26,0,8.53,0,12.79
		C81.84,85.88,81.84,86.79,81.84,87.82z M78.69,12.16c0-1.63,0.03-3.17-0.01-4.7c-0.02-0.93-0.63-1.55-1.57-1.55
		c-5.24-0.02-10.49-0.02-15.73,0c-0.86,0-1.5,0.5-1.55,1.35c-0.09,1.62-0.02,3.25-0.02,4.91C66.13,12.16,72.34,12.16,78.69,12.16z
		 M29.85,27.91c0-1.63,0.04-3.2-0.01-4.76c-0.03-0.91-0.67-1.48-1.63-1.48c-3.11-0.02-6.22-0.02-9.33,0
		c-0.91,0.01-1.54,0.52-1.58,1.42c-0.07,1.59-0.02,3.19-0.02,4.82C21.48,27.91,25.59,27.91,29.85,27.91z M15.63,72.14
		c-2.64,0-5.21,0-7.82,0c0,1.61-0.03,3.15,0.01,4.69c0.02,0.87,0.54,1.48,1.4,1.51c2.12,0.07,4.25,0.02,6.42,0.02
		C15.63,76.25,15.63,74.23,15.63,72.14z M75.5,15.42c-4.22,0-8.37,0-12.48,0c0,1.07,0,2.06,0,3.08c2.14,0,4.21,0,6.27,0
		c2.05,0,4.11,0,6.21,0C75.5,17.42,75.5,16.45,75.5,15.42z"/>
	<path d="M42.44,90.96c-2.57-0.01-4.69-2.12-4.7-4.69c-0.01-2.61,2.11-4.75,4.74-4.75c2.56,0,4.7,2.13,4.7,4.69
		C47.19,88.84,45.06,90.97,42.44,90.96z M42.45,84.67c-0.84,0.01-1.55,0.71-1.56,1.56c-0.01,0.85,0.68,1.56,1.53,1.58
		c0.88,0.02,1.63-0.72,1.61-1.61C44.01,85.36,43.29,84.67,42.45,84.67z"/>
	<path d="M55.03,90.96c-2.61-0.02-4.73-2.19-4.69-4.8c0.04-2.57,2.17-4.64,4.75-4.64c2.56,0,4.69,2.14,4.69,4.7
		C59.78,88.85,57.64,90.98,55.03,90.96z M56.63,86.26c0.01-0.84-0.68-1.56-1.52-1.59c-0.84-0.03-1.58,0.66-1.61,1.5
		c-0.04,0.88,0.69,1.64,1.57,1.64C55.91,87.81,56.62,87.11,56.63,86.26z"/>
	<path d="M67.69,90.96c-2.57,0.01-4.71-2.08-4.74-4.65c-0.03-2.62,2.08-4.77,4.7-4.79c2.56-0.02,4.72,2.09,4.74,4.65
		C72.41,88.8,70.3,90.95,67.69,90.96z M67.65,87.81c0.84,0.01,1.56-0.69,1.58-1.53c0.02-0.88-0.72-1.63-1.61-1.61
		c-0.84,0.02-1.54,0.74-1.53,1.58C66.1,87.1,66.81,87.81,67.65,87.81z"/>
	<path d="M25.14,73.61c0.01-2.61,2.17-4.72,4.79-4.7c2.56,0.02,4.67,2.18,4.65,4.74c-0.02,2.62-2.18,4.73-4.79,4.7
		C27.22,78.32,25.13,76.19,25.14,73.61z M29.88,72.07c-0.84-0.01-1.56,0.68-1.59,1.53c-0.02,0.85,0.66,1.58,1.5,1.61
		c0.88,0.04,1.64-0.69,1.64-1.58C31.43,72.79,30.72,72.08,29.88,72.07z"/>
	<path d="M47.18,73.62c0,2.63-2.14,4.76-4.75,4.74c-2.57-0.01-4.68-2.13-4.69-4.7c-0.01-2.61,2.13-4.74,4.75-4.74
		C45.06,68.92,47.19,71.05,47.18,73.62z M42.41,75.21c0.84,0.02,1.57-0.66,1.61-1.5c0.04-0.88-0.69-1.64-1.57-1.64
		c-0.84,0-1.55,0.7-1.56,1.55C40.88,74.46,41.57,75.18,42.41,75.21z"/>
	<path d="M55.03,78.36c-2.61-0.02-4.73-2.19-4.69-4.8c0.04-2.57,2.17-4.64,4.75-4.64c2.56,0,4.69,2.14,4.69,4.7
		C59.78,76.25,57.65,78.37,55.03,78.36z M55.05,72.07c-0.84,0.01-1.55,0.71-1.56,1.56c-0.01,0.85,0.68,1.56,1.53,1.58
		c0.88,0.02,1.63-0.72,1.61-1.61C56.61,72.76,55.9,72.06,55.05,72.07z"/>
	<path d="M67.63,78.36c-2.61-0.02-4.73-2.19-4.69-4.8c0.04-2.57,2.17-4.64,4.75-4.64c2.56,0,4.69,2.14,4.69,4.7
		C72.38,76.25,70.25,78.37,67.63,78.36z M67.65,72.07c-0.84,0.01-1.55,0.71-1.56,1.56c-0.01,0.85,0.68,1.56,1.53,1.58
		c0.88,0.02,1.63-0.72,1.61-1.61C69.21,72.76,68.5,72.06,67.65,72.07z"/>
	<path d="M29.84,90.96c-2.61-0.01-4.74-2.17-4.7-4.79c0.03-2.57,2.15-4.65,4.74-4.66c2.56,0,4.7,2.13,4.7,4.69
		C34.58,88.84,32.46,90.97,29.84,90.96z M31.43,86.32c0.05-0.84-0.62-1.59-1.47-1.65c-0.84-0.06-1.6,0.6-1.67,1.44
		c-0.07,0.88,0.63,1.67,1.51,1.7C30.64,87.84,31.38,87.16,31.43,86.32z"/>
	<path d="M64.52,45.15c0-0.92-0.01-1.83,0-2.75c0.02-1.24,0.58-1.83,1.79-1.84c1.97-0.02,3.94-0.02,5.9,0
		c1.15,0.01,1.73,0.61,1.75,1.78c0.02,0.92,0.02,1.84,0.03,2.75c0,0.03,0.03,0.05,0.13,0.19c0.86,0,1.8-0.01,2.74,0
		c1.23,0.02,1.81,0.59,1.82,1.81c0.02,1.93,0.02,3.87,0,5.8c-0.01,1.23-0.59,1.8-1.81,1.83c-0.46,0.01-0.92,0-1.38,0
		c-0.46,0-0.92,0-1.54,0c0,0.93,0.01,1.83,0,2.73c-0.01,1.43-0.55,1.99-1.94,1.99c-1.87,0.01-3.74,0.01-5.61,0
		c-1.34-0.01-1.89-0.58-1.9-1.93c-0.01-0.88,0-1.76,0-2.79c-0.98,0-1.92,0.01-2.85,0c-1.29-0.02-1.86-0.58-1.87-1.87
		c-0.01-1.9-0.01-3.8,0-5.71c0.01-1.29,0.57-1.85,1.86-1.88c0.88-0.02,1.77-0.02,2.65-0.03C64.33,45.26,64.36,45.23,64.52,45.15z
		 M70.82,56.29c0-0.9,0-1.71,0-2.52c0-1.69,0.49-2.18,2.14-2.18c0.84,0,1.68,0,2.51,0c0-1.12,0-2.11,0-3.15c-0.62,0-1.18,0-1.73,0
		c-2.7,0-2.92-0.22-2.92-2.88c0-0.61,0-1.21,0-1.79c-1.13,0-2.1,0-3.15,0c0,0.83,0,1.61,0,2.39c0,1.82-0.46,2.28-2.24,2.28
		c-0.81,0-1.61,0-2.41,0c0,1.12,0,2.11,0,3.15c0.82,0,1.57,0,2.32,0c1.89,0,2.33,0.44,2.33,2.29c0,0.8,0,1.6,0,2.42
		C68.77,56.29,69.72,56.29,70.82,56.29z"/>
	<path d="M18.14,53.16c2.2,0,4.4,0,6.6,0c1.24,0,1.96,0.59,1.96,1.57c0,0.98-0.72,1.57-1.96,1.57c-4.46,0.01-8.93,0.01-13.39,0
		c-1.24,0-1.96-0.59-1.96-1.58c0-0.98,0.72-1.57,1.96-1.57C13.62,53.15,15.88,53.16,18.14,53.16z"/>
	<path d="M14.92,62.61c-1.25,0-2.49,0.01-3.74,0c-1.09-0.01-1.78-0.62-1.8-1.54c-0.02-0.96,0.69-1.6,1.83-1.6
		c2.46-0.01,4.92-0.01,7.38,0c1.09,0.01,1.78,0.62,1.8,1.54c0.02,0.96-0.69,1.59-1.83,1.6C17.35,62.62,16.14,62.61,14.92,62.61z"/>
</g>
</svg>
