<?xml version="1.0" encoding="utf-8"?>
<!-- Generator: Adobe Illustrator 24.3.0, SVG Export Plug-In . SVG Version: 6.00 Build 0)  -->
<svg version="1.1" id="Layer_1" xmlns="http://www.w3.org/2000/svg" xmlns:xlink="http://www.w3.org/1999/xlink" x="0px" y="0px"
	 viewBox="0 0 100 100" style="enable-background:new 0 0 100 100;" xml:space="preserve">
<g>
	<path d="M4.06,90.48c0.46-0.69,1.1-0.91,1.91-0.89c1.7,0.04,3.4,0.01,5.22,0.01c-1.77-2.87-1.92-5.74-0.57-8.58
		c-1-0.51-2-0.91-2.89-1.49c-1.59-1.06-1.65-2.72-0.2-3.96c3.99-3.42,7.99-6.84,12-10.24c1.1-0.93,1.87-2.06,2.33-3.43
		c1.76-5.29,3.56-10.56,5.32-15.85c1.35-4.03,4.02-6.67,8.1-7.92c2.97-0.91,5.92-1.86,8.88-2.8c0.13-0.04,0.27-0.09,0.39-0.14
		c-0.02-0.11-0.01-0.19-0.05-0.22c-2.5-2.16-3.59-4.9-3.48-8.18c0.08-2.32-0.09-4.67,0.2-6.97c0.6-4.77,5-8.2,9.91-7.97
		c4.74,0.23,8.74,4.17,8.92,8.9c0.09,2.44,0.08,4.9,0.01,7.34c-0.07,2.71-1.26,4.93-3.27,6.72c-0.18,0.16-0.36,0.31-0.53,0.47
		c-0.02,0.02-0.02,0.06-0.04,0.15c2.69,0.85,5.37,1.75,8.08,2.53c4.4,1.28,7.23,4.08,8.64,8.42c1.68,5.16,3.45,10.28,5.16,15.43
		c0.46,1.4,1.24,2.55,2.37,3.51c3.96,3.36,7.91,6.74,11.86,10.12c1.62,1.39,1.55,3.03-0.24,4.18c-0.79,0.51-1.69,0.86-2.56,1.3
		c1.72,2.79,1.78,5.67-0.08,8.66c1.62,0,3.1,0.03,4.57-0.01c0.82-0.03,1.45,0.2,1.91,0.89c0,0.3,0,0.6,0,0.9
		c-0.39,0.69-0.97,0.93-1.78,0.93c-29.44-0.02-58.88-0.02-88.33,0c-0.81,0-1.39-0.24-1.78-0.93C4.06,91.07,4.06,90.78,4.06,90.48z
		 M61.29,71.1c0-0.4,0-0.72,0-1.04c0-5.94,0-11.88,0-17.82c0-1.52,0.28-2.08,1.11-2.22c0.79-0.13,1.26,0.29,1.8,1.63
		c0.57,1.42,1.16,2.85,1.75,4.32c2.2-0.96,4.29-1.87,6.41-2.8c-0.73-2.2-1.42-4.29-2.13-6.38c-1.05-3.1-3.15-5.13-6.29-6.1
		c-2.77-0.85-5.53-1.71-8.29-2.6c-2.99-0.96-6.06-1.37-9.1-0.55c-3.92,1.05-7.8,2.25-11.63,3.6c-2.49,0.87-4.12,2.8-5.02,5.29
		c-0.41,1.15-0.78,2.31-1.17,3.47c-0.24,0.72-0.48,1.45-0.73,2.21c2.16,1.08,4.22,2.1,6.32,3.15c0.17-0.38,0.29-0.65,0.4-0.92
		c0.43-1.08,0.87-2.16,1.3-3.24c0.29-0.75,0.79-1.24,1.63-1.05c0.79,0.17,1.1,0.76,1.06,1.54c-0.01,0.24,0,0.48,0,0.72
		c0,5.91,0,11.82,0,17.73c0,0.35,0,0.69,0,1.07C46.27,71.1,53.71,71.1,61.29,71.1z M57.22,89.57c0.06,0.01,0.24,0.03,0.41,0.03
		c9.12,0,18.24,0,27.36,0c0.23,0,0.51-0.01,0.68-0.14c0.97-0.67,1.79-1.48,2.2-2.63c0.93-2.63-0.45-5.36-3.24-6.22
		c-7.24-2.24-14.5-4.43-21.75-6.63c-0.36-0.11-0.76-0.15-1.14-0.15c-7.83-0.01-15.67-0.01-23.5,0c-0.41,0-0.84,0.06-1.23,0.18
		c-7.44,2.22-14.87,4.44-22.29,6.69c-0.47,0.14-0.97,0.5-1.25,0.91c-1.23,1.78-1.43,3.71-0.46,5.67c0.91,1.84,2.53,2.34,4.47,2.34
		c11.96-0.02,23.92-0.01,35.88-0.01c0.29,0,0.57,0,0.89,0c-0.48-1.66-1.91-2.81-4-3.06c-3.89-0.46-7.78-0.85-11.67-1.27
		c-3.24-0.35-6.48-0.67-9.72-1.04c-0.94-0.11-1.39-0.67-1.31-1.48c0.08-0.78,0.71-1.27,1.61-1.17c4.67,0.48,9.33,1.01,14,1.46
		c3.92,0.38,7.82,1.09,11.79,0.61c0.92-0.11,1.85-0.13,2.77-0.17c1.06-0.04,1.68,0.43,1.72,1.26c0.04,0.82-0.57,1.36-1.6,1.42
		c-0.72,0.04-1.44,0.1-2.11,0.14C56.24,87.45,56.71,88.47,57.22,89.57z M57.4,24.49C57.4,24.49,57.4,24.49,57.4,24.49
		c-0.01-1.16,0.04-2.33-0.01-3.49c-0.16-3.43-2.88-6.2-6.27-6.45c-3.5-0.26-6.79,2.11-7.2,5.58c-0.32,2.68-0.29,5.42-0.13,8.12
		c0.23,3.66,3.36,6.28,7.06,6.18c3.54-0.09,6.39-2.93,6.54-6.54C57.44,26.76,57.4,25.63,57.4,24.49z M27.04,74.06
		c0.01,0.04,0.02,0.08,0.04,0.12c2.74-0.83,5.47-1.67,8.22-2.46c0.57-0.16,0.75-0.4,0.74-0.98c-0.02-3.85-0.01-7.7-0.01-11.55
		c0-0.13-0.03-0.26-0.07-0.66c-0.41,0.99-0.7,1.72-1.01,2.45c-0.39,0.91-1.07,1.26-1.83,0.96c-0.73-0.29-1-1.06-0.67-1.95
		c0.28-0.74,0.58-1.47,0.88-2.23c-2.11-1.05-4.13-2.05-6.2-3.08c-0.91,2.71-1.79,5.27-2.62,7.85c-0.64,1.99-1.76,3.62-3.36,4.97
		c-3.7,3.12-7.37,6.27-11.05,9.42c-0.2,0.17-0.38,0.36-0.61,0.58c1.84,1.08,3.64,1.14,5.44,0.16c3.87-2.12,7.73-4.27,11.58-6.45
		c1.28-0.72,2.25-1.76,2.71-3.2c0.17-0.54,0.39-1.07,0.67-1.56c0.37-0.66,0.98-0.88,1.68-0.57c0.65,0.29,0.98,0.85,0.76,1.53
		c-0.67,2.09-1.53,4.09-3.42,5.43C28.3,73.26,27.66,73.65,27.04,74.06z M66.94,58.46c1.32,3.28,2.62,6.44,3.86,9.64
		c0.49,1.26,1.26,2.27,2.4,2.92c4.07,2.32,8.16,4.62,12.3,6.82c1.64,0.87,3.35,0.65,5.14-0.42c-0.27-0.18-0.48-0.3-0.66-0.45
		c-2.94-2.5-5.86-5.01-8.8-7.5c-4.66-3.95-4.67-3.94-6.6-9.74c-0.44-1.31-0.89-2.62-1.36-3.99C71.09,56.65,69.07,57.53,66.94,58.46z
		 M64.17,58.8c-0.06,0.01-0.13,0.01-0.19,0.02c0,4.08-0.01,8.15,0.03,12.23c0,0.21,0.33,0.53,0.57,0.61
		c1.59,0.52,3.19,0.99,4.79,1.47c1.2,0.36,2.4,0.73,3.6,1.09c-0.14-0.28-0.34-0.41-0.54-0.52c-1.97-1.1-3.38-2.65-4.2-4.8
		C66.93,65.51,65.53,62.16,64.17,58.8z"/>
	<path d="M69.61,85.53c-1.4,0.08-2.8,0.18-4.2,0.25c-0.98,0.05-1.59-0.43-1.65-1.23c-0.06-0.83,0.46-1.38,1.44-1.44
		c2.83-0.17,5.65-0.34,8.48-0.49c1.13-0.06,1.76,0.4,1.8,1.26c0.04,0.86-0.56,1.36-1.68,1.42C72.41,85.37,71.01,85.45,69.61,85.53
		C69.61,85.53,69.61,85.53,69.61,85.53z"/>
</g>
</svg>
